<svg width="20" height="20" viewBox="0 0 29 29" fill="none" xmlns="http://www.w3.org/2000/svg">
<path d="M14.6081 0.218567C6.66165 0.218567 0.219391 6.65656 0.219391 14.5978C0.219391 22.539 6.66165 28.977 14.6081 28.977C22.5546 28.977 28.9969 22.539 28.9969 14.5978C28.9871 6.66045 22.5498 0.228316 14.6081 0.218567ZM14.612 27.3246C13.0512 25.9218 11.8114 24.1953 10.9939 22.2465L10.9588 22.153H18.2761C17.4322 24.2002 16.1865 25.9296 14.6267 27.3119L14.612 27.3246ZM10.4281 20.6907C9.90619 19.0968 9.58232 17.2601 9.53257 15.3543L9.5316 15.3289H19.6847C19.6369 17.2582 19.3179 19.0968 18.7638 20.8291L18.8019 20.6907H10.4281ZM1.71972 15.3289H8.05077C8.09662 17.2553 8.38928 19.0948 8.89947 20.8418L8.86142 20.6907H3.21615C2.36941 19.1387 1.828 17.3079 1.7207 15.3621L1.71875 15.3289H1.71972ZM14.6042 1.87193C16.2255 3.32155 17.5025 5.12115 18.32 7.15471L18.3541 7.25025L10.8602 7.21418C11.7031 5.09483 12.979 3.30498 14.5896 1.88461L14.6042 1.87193ZM18.8575 8.71546C19.3374 10.247 19.6369 12.0134 19.6847 13.8413L19.6857 13.8666H9.53257C9.5794 11.9988 9.87888 10.2187 10.3978 8.53414L10.3608 8.67355L18.8575 8.71546ZM8.05077 13.8666H1.71972C1.82703 11.9393 2.34502 10.1563 3.18494 8.57021L3.15177 8.63942L8.81753 8.66672C8.37269 10.2138 8.09565 11.9988 8.05077 13.8403V13.8666ZM21.1655 15.3289H27.4966C27.3883 17.3079 26.8469 19.1387 25.966 20.7579L25.9992 20.6907H20.3539C20.826 19.0948 21.1197 17.2553 21.1645 15.3543L21.1655 15.3289ZM21.1655 13.8666C21.1206 12.0183 20.8485 10.2538 20.3773 8.57118L20.4134 8.72229L26.1182 8.74958C26.8927 10.2362 27.3902 11.9822 27.4946 13.8325L27.4966 13.8666H21.1655ZM25.25 7.28339L19.9422 7.25804C19.1774 5.17282 18.078 3.38102 16.6928 1.85244L16.7055 1.86608C20.269 2.46855 23.2804 4.45434 25.2227 7.2405L25.2509 7.28242L25.25 7.28339ZM12.5108 1.86706C11.149 3.36835 10.0564 5.14259 9.32869 7.09524L9.29162 7.20735L4.04241 7.18201C6.01196 4.40852 8.99117 2.46367 12.4337 1.87778L12.5098 1.86706H12.5108ZM4.14679 22.153H9.35015C10.114 24.1524 11.1851 25.8711 12.5225 27.3422L12.5108 27.3285C9.05067 26.7416 6.11439 24.8504 4.17215 22.189L4.14679 22.153ZM16.7055 27.3285C18.0322 25.8711 19.1023 24.1524 19.8291 22.2631L19.8661 22.152H25.0695C23.1019 24.8504 20.1656 26.7416 16.7816 27.3168L16.7055 27.3285Z" fill="black"/>
</svg>
