<svg width="10" height="10" viewBox="0 0 60 60" fill="none" xmlns="http://www.w3.org/2000/svg">
<path d="M30 0.5C13.708 0.5 0.5 13.708 0.5 30C0.5 46.292 13.708 59.5 30 59.5C46.292 59.5 59.5 46.292 59.5 30C59.48 13.716 46.282 0.52 30 0.5ZM30.008 56.11C26.808 53.232 24.266 49.69 22.59 45.692L22.518 45.5H37.52C35.79 49.7 33.236 53.248 30.038 56.084L30.008 56.11ZM21.43 42.5C20.36 39.23 19.696 35.462 19.594 31.552L19.592 31.5H40.408C40.31 35.458 39.656 39.23 38.52 42.784L38.598 42.5H21.43ZM3.576 31.5H16.556C16.65 35.452 17.25 39.226 18.296 42.81L18.218 42.5H6.644C4.908 39.316 3.798 35.56 3.578 31.568L3.574 31.5H3.576ZM29.992 3.892C33.316 6.866 35.934 10.558 37.61 14.73L37.68 14.926L22.316 14.852C24.044 10.504 26.66 6.832 29.962 3.918L29.992 3.892ZM38.712 17.932C39.696 21.074 40.31 24.698 40.408 28.448L40.41 28.5H19.594C19.69 24.668 20.304 21.016 21.368 17.56L21.292 17.846L38.712 17.932ZM16.556 28.5H3.576C3.796 24.546 4.858 20.888 6.58 17.634L6.512 17.776L18.128 17.832C17.216 21.006 16.648 24.668 16.556 28.446V28.5ZM43.444 31.5H56.424C56.202 35.56 55.092 39.316 53.286 42.638L53.354 42.5H41.78C42.748 39.226 43.35 35.452 43.442 31.552L43.444 31.5ZM43.444 28.5C43.352 24.708 42.794 21.088 41.828 17.636L41.902 17.946L53.598 18.002C55.186 21.052 56.206 24.634 56.42 28.43L56.424 28.5H43.444ZM51.818 14.994L40.936 14.942C39.368 10.664 37.114 6.988 34.274 3.852L34.3 3.88C41.606 5.116 47.78 9.19 51.762 14.906L51.82 14.992L51.818 14.994ZM25.7 3.882C22.908 6.962 20.668 10.602 19.176 14.608L19.1 14.838L8.338 14.786C12.376 9.096 18.484 5.106 25.542 3.904L25.698 3.882H25.7ZM8.552 45.5H19.22C20.786 49.602 22.982 53.128 25.724 56.146L25.7 56.118C18.606 54.914 12.586 51.034 8.604 45.574L8.552 45.5ZM34.3 56.118C37.02 53.128 39.214 49.602 40.704 45.726L40.78 45.498H51.448C47.414 51.034 41.394 54.914 34.456 56.094L34.3 56.118Z" fill="black"/>
</svg>
