<svg width="47" height="47" viewBox="0 0 47 47" fill="none" xmlns="http://www.w3.org/2000/svg">
<g clip-path="url(#clip0_7_33)">
<path fill-rule="evenodd" clip-rule="evenodd" d="M0 0H47V47H0V0Z" fill="white"/>
<path d="M41.267 13.101C42.0336 14.2448 42.6892 15.4591 43.2248 16.7275C43.2248 16.7278 43.2252 16.7271 43.2257 16.7273C43.7874 18.0357 44.2139 19.3981 44.4988 20.7932C44.7843 22.197 44.9276 23.626 44.9265 25.0585C44.9253 25.7708 44.8883 26.4826 44.8155 27.1911C44.7416 27.9166 44.6356 28.6385 44.4978 29.3546L44.4483 29.6136L38.0926 34.2169L37.0644 42.3933H26.099L25.7003 42.659C25.3933 42.8971 25.0479 43.0809 24.6789 43.2025H24.6765C24.3032 43.3254 23.9111 43.3844 23.5 43.3844C23.0804 43.3844 22.6888 43.3254 22.3157 43.2025H22.313C21.9551 43.085 21.6203 42.9082 21.2997 42.6695L20.851 42.3933H9.98686L8.94228 34.2183L2.55341 29.6136L2.50196 29.3597C2.35728 28.6419 2.24937 27.9171 2.17864 27.1882C2.10888 26.4804 2.07381 25.7697 2.07355 25.0585C2.07355 23.6151 2.21424 22.1955 2.49489 20.8051C2.77834 19.4078 3.20165 18.0426 3.75842 16.73C4.29375 15.4584 4.9493 14.2409 5.71615 13.094C6.48514 11.9462 7.36461 10.8765 8.34197 9.90002C9.31332 8.92922 10.3763 8.05459 11.5159 7.28834C12.6631 6.51727 13.881 5.85702 15.1532 5.31648C16.4933 4.74591 17.8553 4.32018 19.2427 4.03831C20.644 3.75502 22.0703 3.61346 23.5 3.61575C24.9393 3.61575 26.3619 3.75766 27.7654 4.04319C29.1654 4.32879 30.533 4.75539 31.8471 5.31648C33.1144 5.85458 34.3273 6.51275 35.4692 7.282C36.6045 8.04788 37.6637 8.92104 38.6419 9.90002C38.6429 9.90051 38.6415 9.90197 38.6419 9.90246C39.6164 10.883 40.4954 11.954 41.267 13.101Z" fill="white"/>
<path fill-rule="evenodd" clip-rule="evenodd" d="M42.6144 16.9873C41.5596 14.4941 40.0732 12.2884 38.1716 10.3707C36.2694 8.46881 34.064 6.98242 31.5867 5.9276C28.9979 4.82499 26.2967 4.28149 23.5 4.28149C20.6871 4.28149 18.0023 4.82499 15.4131 5.9276C12.9357 6.98242 10.7142 8.46881 8.81255 10.3707C6.89482 12.2884 5.42427 14.4941 4.36945 16.9873C3.2827 19.5605 2.73944 22.2614 2.73944 25.0584C2.73944 26.4329 2.86721 27.8071 3.15493 29.2296L9.56355 33.848L10.5703 41.7272H21.0385L21.6617 42.1105C22.2052 42.5262 22.7965 42.7176 23.4997 42.7176C24.1871 42.7176 24.7945 42.5262 25.3217 42.1105L25.8969 41.7272H36.4772L37.4681 33.848L43.8448 29.2296C44.1167 27.8071 44.2605 26.4326 44.2605 25.0584C44.2605 22.2614 43.7173 19.5605 42.6144 16.9873Z" fill="#CC2229"/>
<path fill-rule="evenodd" clip-rule="evenodd" d="M39.5461 19.3527C39.1303 17.5947 38.2355 16.0922 36.8449 14.8777L27.1121 31.6428L35.7262 13.2635C34.5756 11.7452 33.1211 10.7065 31.2833 10.1149L25.3219 30.9554L29.6853 9.26785C28.3266 8.5166 26.8883 8.13306 25.3538 8.13306L24.379 8.19694L23.5161 30.7633L22.6051 8.19694L21.6461 8.13306C20.112 8.13306 18.6575 8.5166 17.315 9.26785L21.6301 30.9554L15.7169 10.1152C13.8789 10.7067 12.3927 11.7454 11.274 13.2638L19.9362 31.6431L10.1551 14.8779C8.76477 16.0925 7.86966 17.5949 7.45417 19.353L18.3539 32.7457L7.13451 21.4782C6.62295 22.6291 6.36742 23.8278 6.36742 25.0584C6.36742 25.7455 6.44739 26.4804 6.63904 27.2638L12.936 31.8666L13.7672 38.0514H21.4226L22.5093 38.8824C22.8131 39.0902 23.1328 39.1862 23.5002 39.2021C23.8518 39.1865 24.1876 39.0902 24.4592 38.8824L25.6099 38.0514H33.2971L34.0806 31.8666L40.3612 27.2638C40.537 26.4804 40.6331 25.7455 40.6331 25.0584C40.6331 23.8278 40.3612 22.6291 39.866 21.4782L28.7107 32.7452L39.5461 19.3527Z" fill="#F6D330"/>
</g>
<defs>
<clipPath id="clip0_7_33">
<rect width="47" height="47" fill="white"/>
</clipPath>
</defs>
</svg>
