<svg width="17" height="20" viewBox="0 0 50 48" fill="none" xmlns="http://www.w3.org/2000/svg">
<path d="M32.4674 34.2706L32.0105 32.2028L30.1805 33.4209C22.9401 38.2402 12.8942 37.5776 6.44252 31.4063C-0.814288 24.4597 -0.814174 13.1463 6.44287 6.19993C13.6896 -0.7333 25.4783 -0.733351 32.7249 6.20002C39.1861 12.3836 39.8858 22.0239 34.8321 28.9718L33.5918 30.6768L35.7361 31.1105C36.2499 31.2142 36.7332 31.4509 37.123 31.8225L48.5137 42.7243C49.6055 43.7655 49.6093 45.4664 48.514 46.5143C47.4401 47.545 45.6994 47.5506 44.6132 46.514C44.6132 46.5143 44.6129 46.5138 44.6132 46.514L33.2217 35.6148C32.8284 35.2387 32.5785 34.7731 32.4674 34.2706ZM7.94502 29.9102C14.3593 36.0491 24.8066 36.0488 31.2224 29.9105C37.6263 23.7833 37.6263 13.8248 31.2224 7.69771C24.8068 1.56112 14.3595 1.56074 7.94531 7.69769C1.54516 13.8247 1.54487 23.783 7.94502 29.9102Z" fill="#333333"/>
<path d="M44.6132 46.514C45.6994 47.5506 47.4401 47.545 48.514 46.5143C49.6093 45.4664 49.6055 43.7655 48.5137 42.7243L37.123 31.8225C36.7332 31.4509 36.2499 31.2142 35.7361 31.1105L33.5918 30.6768L34.8321 28.9718C39.8858 22.0239 39.1861 12.3836 32.7249 6.20002C25.4783 -0.733351 13.6896 -0.7333 6.44287 6.19993C-0.814174 13.1463 -0.814288 24.4597 6.44252 31.4063C12.8942 37.5776 22.9401 38.2402 30.1805 33.4209L32.0105 32.2028L32.4674 34.2706C32.5785 34.7731 32.8284 35.2387 33.2217 35.6148L44.6132 46.514ZM44.6132 46.514C44.6129 46.5138 44.6132 46.5143 44.6132 46.514ZM7.94502 29.9102C14.3593 36.0491 24.8066 36.0488 31.2224 29.9105C37.6263 23.7833 37.6263 13.8248 31.2224 7.69771C24.8068 1.56112 14.3595 1.56074 7.94531 7.69769C1.54516 13.8247 1.54487 23.783 7.94502 29.9102Z" stroke="#333333"/>
</svg>
