<svg width="43" height="40" viewBox="0 0 43 40" fill="none" xmlns="http://www.w3.org/2000/svg">
<path d="M39.1935 9.48532C39.9601 10.629 40.6156 11.8434 41.1512 13.1118C41.1512 13.1121 41.1517 13.1113 41.1522 13.1116C41.7138 14.42 42.1404 15.7824 42.4252 17.1775C42.7108 18.5813 42.8541 20.0103 42.8529 21.4428C42.8518 22.1551 42.8147 22.8668 42.742 23.5754C42.668 24.3009 42.562 25.0228 42.4243 25.7389L42.3748 25.9978L36.0191 30.6011L34.9908 38.7775H24.0255L23.6268 39.0433C23.3198 39.2814 22.9743 39.4652 22.6054 39.5868H22.6029C22.2296 39.7097 21.8376 39.7687 21.4265 39.7687C21.0068 39.7687 20.6152 39.7097 20.2422 39.5868H20.2395C19.8815 39.4693 19.5468 39.2925 19.2261 39.0538L18.7775 38.7775H7.91331L6.86874 30.6026L0.479861 25.9978L0.428412 25.744C0.283735 25.0261 0.175821 24.3013 0.105092 23.5724C0.0353351 22.8647 0.00026245 22.154 0 21.4428C0 19.9993 0.140691 18.5797 0.421341 17.1894C0.704788 15.7921 1.1281 14.4268 1.68488 13.1143C2.2202 11.8427 2.87575 10.6252 3.6426 9.47825C4.41159 8.33049 5.29106 7.26075 6.26842 6.2843C7.23978 5.31349 8.30271 4.43887 9.44238 3.67262C10.5896 2.90155 11.8075 2.24129 13.0796 1.70075C14.4197 1.13019 15.7818 0.704457 17.1692 0.422587C18.5705 0.139302 19.9968 -0.00226407 21.4265 2.73757e-05C22.8658 2.73757e-05 24.2883 0.141937 25.6918 0.427464C27.0919 0.713063 28.4594 1.13967 29.7735 1.70075C31.0409 2.23885 32.2538 2.89703 33.3957 3.66628C34.5309 4.43215 35.5901 5.30532 36.5684 6.2843C36.5694 6.28479 36.5679 6.28625 36.5684 6.28674C37.5429 7.26729 38.4218 8.33831 39.1935 9.48532Z" fill="white"/>
<path fill-rule="evenodd" clip-rule="evenodd" d="M40.5409 13.3716C39.4861 10.8784 37.9997 8.67271 36.098 6.75498C34.1959 4.85309 31.9904 3.36669 29.5131 2.31188C26.9244 1.20927 24.2232 0.665771 21.4264 0.665771C18.6136 0.665771 15.9288 1.20927 13.3395 2.31188C10.8622 3.36669 8.64065 4.85309 6.73901 6.75498C4.82127 8.67271 3.35072 10.8784 2.29591 13.3716C1.20915 15.9447 0.665894 18.6457 0.665894 21.4427C0.665894 22.8171 0.793661 24.1914 1.08138 25.6139L7.49001 30.2323L8.49679 38.1115H18.965L19.5882 38.4948C20.1317 38.9105 20.723 39.1019 21.4262 39.1019C22.1136 39.1019 22.7209 38.9105 23.2481 38.4948L23.8233 38.1115H34.4036L35.3946 30.2323L41.7713 25.6139C42.0431 24.1914 42.187 22.8169 42.187 21.4427C42.187 18.6457 41.6437 15.9447 40.5409 13.3716Z" fill="#CC2229"/>
<path fill-rule="evenodd" clip-rule="evenodd" d="M37.4725 15.737C37.0568 13.979 36.1619 12.4765 34.7714 11.262L25.0386 28.0271L33.6527 9.64779C32.502 8.12946 31.0476 7.09073 29.2098 6.4992L23.2484 27.3397L27.6117 5.65213C26.2531 4.90088 24.8147 4.51733 23.2803 4.51733L22.3055 4.58122L21.4425 27.1476L20.5316 4.58122L19.5726 4.51733C18.0384 4.51733 16.584 4.90088 15.2414 5.65213L19.5565 27.3397L13.6433 6.49944C11.8053 7.09098 10.3192 8.1297 9.20049 9.64804L17.8626 28.0273L8.08155 11.2622C6.69122 12.4767 5.79611 13.9792 5.38063 15.7372L16.2804 29.1299L5.06096 17.8625C4.5494 19.0134 4.29387 20.212 4.29387 21.4427C4.29387 22.1298 4.37385 22.8647 4.5655 23.6481L10.8624 28.2509L11.6937 34.4357H19.349L20.4358 35.2667C20.7396 35.4744 21.0592 35.5705 21.4267 35.5864C21.7783 35.5707 22.1141 35.4744 22.3857 35.2667L23.5363 34.4357H31.2236L32.007 28.2509L38.2876 23.6481C38.4635 22.8647 38.5595 22.1298 38.5595 21.4427C38.5595 20.212 38.2876 19.0134 37.7924 17.8625L26.6371 29.1295L37.4725 15.737Z" fill="#F6D330"/>
</svg>
